#!OML:ASF E:\acrobat2\Project_11_07_03\Capture day 1\Session 1\Acrobat.ASF
:FULLY-SPECIFIED
:DEGREES
273
root 6.66513 18.326 26.32 176.457 -79.6912 183.896
lowerback 7.36132 -4.10094 3.78827
upperback 3.86611 -5.39786 3.49327
thorax -0.112795 -2.77003 1.88307
lowerneck -0.869371 -1.54511 -3.70018
upperneck 8.90802 -2.39423 3.84482
head 3.12241 -1.24329 1.82863
rclavicle -3.53837e-014 1.19271e-014
rhumerus -43.8134 -18.1563 -66.8098
rradius 29.6594
rwrist -9.64389
rhand -9.98112 -37.6385
rfingers 7.12502
rthumb 16.0018 -66.9976
lclavicle -3.53837e-014 1.19271e-014
lhumerus -21.7588 -5.67827 75.6679
lradius 30.8581
lwrist 6.48458
lhand -6.77113 -23.0146
lfingers 7.12502
lthumb 19.0909 6.06843
rfemur -9.77989 3.07764 11.3106
rtibia 24.2752
rfoot -5.72794 -0.918114
rtoes -3.40568
lfemur 175.739 166.728 173.362
ltibia 21.0786
lfoot -7.39159 -4.90988
ltoes 47.2211
274
root 6.58419 18.0175 26.4116 168.844 -80.7511 190.263
lowerback 7.4049 -3.98698 4.26016
upperback 4.03147 -5.22444 3.29921
thorax -0.0242059 -2.67323 1.40723
lowerneck -0.769887 -1.65258 -3.11149
upperneck 7.30959 -2.50264 4.24259
head 2.5649 -1.25469 1.84279
rclavicle 1.63003e-014 -4.13472e-014
rhumerus -44.2568 -17.9565 -67.5097
rradius 30.006
rwrist -9.59221
rhand -9.51066 -37.2427
rfingers 7.12502
rthumb 16.4548 -66.5649
lclavicle 1.63003e-014 -4.13472e-014
lhumerus -20.064 -6.23943 73.9472
lradius 30.4133
lwrist 7.26589
lhand -7.17 -21.7894
lfingers 7.12502
lthumb 18.7073 7.33102
rfemur -8.56769 2.17168 12.508
rtibia 25.9809
rfoot -10.5037 -1.82743
rtoes -7.98477
lfemur 175.804 167.265 174.313
ltibia 23.8121
lfoot -9.23366 -8.84318
ltoes 30.7624
275
root 6.52507 17.7113 26.4928 157.564 -81.6965 200.279
lowerback 7.80809 -3.88255 5.05625
upperback 4.21922 -5.02326 3.15305
thorax -0.125534 -2.56255 0.82739
lowerneck -0.483499 -1.74813 -2.67831
upperneck 5.42222 -2.58773 4.85152
head 1.90015 -1.27373 1.95555
rclavicle -1.70955e-014 6.36111e-015
rhumerus -44.6553 -17.65 -68.4649
rradius 30.5028
rwrist -9.77347
rhand -9.05946 -38.6457
rfingers 7.12502
rthumb 16.8892 -67.9313
lclavicle -1.70955e-014 6.36111e-015
lhumerus -17.9214 -6.61614 72.3127
lradius 29.7778
lwrist 8.04685
lhand -6.48268 -21.082
lfingers 7.12502
lthumb 19.3683 7.97341
rfemur -7.31605 1.45099 13.9757
rtibia 27.9843
rfoot -15.2551 -3.97978
rtoes -16.1069
lfemur 175.528 167.335 175.799
ltibia 27.0937
lfoot -9.73058 -12.7265
ltoes 32.4871
276
root 6.48151 17.4294 26.5556 136.148 -81.2365 220.445
lowerback 8.60311 -3.76916 7.34028
upperback 4.36684 -4.68125 3.47146
thorax -0.531758 -2.38403 -0.0730296
lowerneck 0.289233 -1.81705 -2.32637
upperneck 3.19184 -2.61674 5.55374
head 1.06007 -1.29663 2.12099
rclavicle -1.09332e-014 3.4191e-014
rhumerus -45.239 -17.3056 -69.4252
rradius 30.9169
rwrist -9.5373
rhand -9.7521 -39.405
rfingers 7.12502
rthumb 16.2224 -68.7463
lclavicle -1.09332e-014 3.4191e-014
lhumerus -15.7411 -6.19927 70.9192
lradius 28.833
lwrist 7.42013
lhand -5.93314 -20.6325
lfingers 7.12502
lthumb 19.8966 8.36899
rfemur -5.76731 1.15926 17.3763
rtibia 29.0886
rfoot -19.0549 -5.76065
rtoes -17.7619
lfemur 174.679 167.216 179.494
ltibia 31.3272
lfoot -10.066 -15.3296
ltoes 42.1773
277
root 6.44026 17.2662 26.6226 151.701 -84.5972 204.911
lowerback 8.04346 -3.38959 3.14673
upperback 3.95345 -4.42636 2.45274
thorax -0.44355 -2.2684 1.13551
lowerneck 1.32009 -1.90486 -2.24195
upperneck 0.871454 -2.64061 6.11486
head 0.165393 -1.34629 2.30622
rclavicle 3.57812e-014 -1.51076e-014
rhumerus -45.7493 -16.4919 -70.3415
rradius 31.2981
rwrist -9.50063
rhand -11.4041 -39.353
rfingers 7.12502
rthumb 14.6312 -68.8169
lclavicle 3.57812e-014 -1.51076e-014
lhumerus -13.8983 -4.71077 70.2621
lradius 27.8559
lwrist 6.22604
lhand -5.94121 -20.0324
lfingers 7.12502
lthumb 19.8889 8.96988
rfemur -5.98189 -0.309758 12.619
rtibia 30.1955
rfoot -21.0959 -5.80844
rtoes -17.8933
lfemur 171.617 167.889 174.393
ltibia 35.566
lfoot -11.3377 -16.657
ltoes 41.9085
278
root 6.38747 17.1812 26.6903 162.771 -86.209 193.69
lowerback 7.76159 -3.02161 1.08632
upperback 3.74469 -4.05759 1.97816
thorax -0.402663 -2.09164 1.74878
lowerneck 2.16678 -1.97718 -2.02316
upperneck -1.07381 -2.64319 6.31524
head -0.587987 -1.38875 2.36316
rclavicle -1.90833e-014 2.94201e-014
rhumerus -45.9156 -15.2665 -71.4451
rradius 31.4528
rwrist -9.66987
rhand -12.4177 -40.9426
rfingers 7.12502
rthumb 13.6545 -70.4747
lclavicle -1.90833e-014 2.94201e-014
lhumerus -12.5108 -1.98487 69.9728
lradius 27.0009
lwrist 4.75274
lhand -6.39246 -19.7198
lfingers 7.12502
lthumb 19.455 9.32693
rfemur -6.21923 -1.23336 10.2745
rtibia 31.755
rfoot -22.006 -5.71716
rtoes -20.6927
lfemur 169.684 168.326 172.029
ltibia 38.9475
lfoot -12.7477 -17.6818
ltoes 40.6376
279
root 6.32551 17.1646 26.7933 134.673 -84.8473 222.092
lowerback 7.01221 -2.602 3.82336
upperback 3.61753 -3.35173 2.37422
thorax -0.259554 -1.71028 0.543839
lowerneck 2.64297 -2.01895 -1.55322
upperneck -2.35828 -2.62791 6.08435
head -1.08338 -1.40804 2.22909
rclavicle -3.50358e-014 -8.74653e-015
rhumerus -45.8411 -14.3695 -72.2784
rradius 30.9522
rwrist -8.29537
rhand -11.5168 -41.686
rfingers 7.12502
rthumb 14.5226 -71.1577
lclavicle -3.50358e-014 -8.74653e-015
lhumerus -11.8175 1.17694 69.8559
lradius 26.5996
lwrist 3.51112
lhand -7.42018 -19.8489
lfingers 7.12502
lthumb 18.4667 9.29458
rfemur -7.11909 -1.12926 12.9988
rtibia 33.0071
rfoot -22.0761 -5.48773
rtoes -21.8442
lfemur 169.836 167.985 174.842
ltibia 38.9668
lfoot -12.8508 -17.9529
ltoes 41.0998
280
root 6.25746 17.1962 26.9015 135.869 -85.1144 221.027
lowerback 6.34137 -2.18258 3.82823
upperback 3.4423 -2.80548 2.01131
thorax -0.0787005 -1.42354 0.102834
lowerneck 2.93832 -2.02349 -1.05739
upperneck -3.05577 -2.59162 5.70368
head -1.36619 -1.4036 2.03274
rclavicle -2.41523e-014 -1.98785e-014
rhumerus -45.8401 -13.5909 -72.9118
rradius 30.0986
rwrist -5.44188
rhand -9.75824 -40.3658
rfingers 7.12502
rthumb 16.2164 -69.7076
lclavicle -2.41523e-014 -1.98785e-014
lhumerus -11.9863 3.56404 69.9478
lradius 26.9192
lwrist 3.54179
lhand -8.04897 -20.0777
lfingers 7.12502
lthumb 17.8617 9.12198
rfemur -7.20512 -1.65365 12.1069
rtibia 33.4066
rfoot -21.6335 -4.94603
rtoes -21.9256
lfemur 170.433 168.123 174.039
ltibia 38.0287
lfoot -12.3072 -18.0758
ltoes 42.3779
281
root 6.19587 17.2672 26.9852 139.294 -85.9473 217.67
lowerback 5.8986 -1.84619 3.1006
upperback 3.21144 -2.38894 1.60357
thorax -0.0520914 -1.21211 0.0505525
lowerneck 2.92107 -1.96868 -0.569983
upperneck -3.09341 -2.50623 5.34868
head -1.38522 -1.36029 1.83013
rclavicle -2.5345e-015 -3.37934e-014
rhumerus -45.9327 -12.2325 -74.0199
rradius 29.6535
rwrist -3.6918
rhand -9.70655 -38.8092
rfingers 7.12502
rthumb 16.2662 -68.1469
lclavicle -2.5345e-015 -3.37934e-014
lhumerus -12.7458 4.86351 70.2156
lradius 27.6826
lwrist 4.70319
lhand -8.13283 -20.3111
lfingers 7.12502
lthumb 17.781 8.89601
rfemur -6.4566 -2.2188 10.6573
rtibia 32.5116
rfoot -20.6171 -4.81898
rtoes -22.52
lfemur 171.099 168.79 172.651
ltibia 36.6517
lfoot -11.4454 -17.8826
ltoes 43.9668
282
root 6.12903 17.3748 27.0552 139.92 -86.5112 217.274
lowerback 5.35287 -1.57779 2.61043
upperback 2.92032 -2.05235 1.4335
thorax -0.0325653 -1.04185 0.117454
lowerneck 2.64164 -1.84912 -0.519527
upperneck -2.61174 -2.36981 5.16842
head -1.18933 -1.27706 1.74807
rclavicle 8.44835e-016 -1.59028e-014
rhumerus -45.8794 -10.4949 -75.2057
rradius 29.6351
rwrist -3.2301
rhand -9.95172 -38.6099
rfingers 7.12502
rthumb 16.0301 -67.9668
lclavicle 8.44835e-016 -1.59028e-014
lhumerus -13.999 5.57162 70.672
lradius 28.5038
lwrist 6.11089
lhand -8.13112 -20.6905
lfingers 7.12502
lthumb 17.7827 8.51643
rfemur -5.30187 -2.09989 9.74158
rtibia 30.3914
rfoot -19.273 -4.18271
rtoes -16.0109
lfemur 171.932 169.501 171.767
ltibia 34.7381
lfoot -10.4347 -17.4364
ltoes 45.983
283
root 6.05986 17.511 27.1178 135.698 -86.6981 221.728
lowerback 4.93253 -1.34352 2.49482
upperback 2.56802 -1.73918 1.50098
thorax -0.150732 -0.8844 0.228538
lowerneck 2.49836 -1.8802 -0.739662
upperneck -2.23405 -2.43757 4.82345
head -1.04375 -1.29303 1.6686
rclavicle 1.31943e-014 -6.75868e-015
rhumerus -45.8961 -8.92377 -76.0518
rradius 29.959
rwrist -2.36291
rhand -8.79107 -39.2878
rfingers 7.12502
rthumb 17.1475 -68.5512
lclavicle 1.31943e-014 -6.75868e-015
lhumerus -15.6578 5.59144 71.3128
lradius 29.1609
lwrist 7.44329
lhand -7.91311 -21.0751
lfingers 7.12502
lthumb 17.9924 8.11269
rfemur -4.06107 -2.40593 9.47829
rtibia 27.7589
rfoot -16.97 -4.78186
rtoes -16.0525
lfemur 173.172 170.159 171.514
ltibia 32.2317
lfoot -9.96646 -16.2909
ltoes 46.1017
284
root 5.9937 17.6663 27.1736 127.306 -86.6346 230.455
lowerback 4.4245 -1.12615 3.12448
upperback 2.23877 -1.4243 1.34275
thorax -0.219786 -0.718632 -0.308421
lowerneck 2.28727 -1.991 -0.298939
upperneck -1.93067 -2.59306 4.19192
head -0.917567 -1.35717 1.38542
rclavicle -8.26199e-015 -2.38542e-015
rhumerus -46.0988 -7.76253 -77.3871
rradius 30.5741
rwrist -0.893329
rhand -8.73542 -39.9083
rfingers 7.12502
rthumb 17.2011 -69.167
lclavicle -8.26199e-015 -2.38542e-015
lhumerus -17.2504 4.74005 71.6545
lradius 29.6192
lwrist 8.5361
lhand -7.27794 -21.0519
lfingers 7.12502
lthumb 18.6035 8.07851
rfemur -2.92201 -2.64716 9.7629
rtibia 25.4064
rfoot -14.7856 -5.50487
rtoes -16.4469
lfemur 174.449 170.698 171.677
ltibia 29.4211
lfoot -9.43542 -14.7414
ltoes 45.473
285
root 5.93342 17.8297 27.2202 117.809 -86.526 240.507
lowerback 3.81125 -0.963479 3.51926
upperback 1.85031 -1.19993 1.38041
thorax -0.277016 -0.604034 -0.50787
lowerneck 1.89243 -1.94568 0.0340668
upperneck -1.42284 -2.55011 3.61489
head -0.702255 -1.31906 1.13399
rclavicle -1.41883e-014 3.3197e-014
rhumerus -45.9484 -8.18356 -76.6258
rradius 30.6622
rwrist -2.01745
rhand -5.94025 -38.0036
rfingers 7.12502
rthumb 19.8898 -67.0058
lclavicle -1.41883e-014 3.3197e-014
lhumerus -19.0147 4.06605 72.209
lradius 30.0286
lwrist 9.11563
lhand -6.34916 -20.7107
lfingers 7.12502
lthumb 19.4967 8.3318
rfemur -2.06908 -2.48242 10.2977
rtibia 23.1188
rfoot -12.611 -6.80696
rtoes -17.1319
lfemur 175.423 171.081 171.909
ltibia 26.5638
lfoot -8.05695 -13.3061
ltoes 46.3902
286
root 5.87767 17.988 27.2505 111.034 -86.6034 248.013
lowerback 3.04178 -0.841355 3.45877
upperback 1.43468 -1.05253 1.36673
thorax -0.268244 -0.529796 -0.502577
lowerneck 1.5346 -1.8329 -0.0604096
upperneck -0.887437 -2.42173 3.58981
head -0.478718 -1.24397 1.13005
rclavicle 1.90088e-015 1.41137e-014
rhumerus -45.7636 -6.96198 -77.4715
rradius 31.4314
rwrist -2.77314
rhand -5.67031 -38.7525
rfingers 7.12502
rthumb 20.1493 -67.7276
lclavicle 1.90088e-015 1.41137e-014
lhumerus -20.9659 3.10452 72.7605
lradius 30.2732
lwrist 9.57667
lhand -5.54839 -20.6124
lfingers 7.12502
lthumb 20.2664 8.3503
rfemur -1.59974 -2.11089 10.5856
rtibia 21.1208
rfoot -10.6927 -8.31454
rtoes -17.7369
lfemur 176.062 171.395 171.82
ltibia 23.9154
lfoot -6.78083 -11.6448
ltoes 46.3173
